HIERARCHY
ROOT pelvis
{
  OFFSET 0 100 0
  CHANNELS 6 Xposition Yposition Zposition Zrotation Xrotation Yrotation
  JOINT pelvis_right_femur
  {
    OFFSET -10.78128 -3.44521 -0.5502486
    CHANNELS 3 Zrotation Xrotation Yrotation
    JOINT right_femur_tibia
    {
      OFFSET -0.8047443 -44.0398 -0.1307829
      CHANNELS 3 Zrotation Xrotation Yrotation
      JOINT right_tibia_foot
      {
        OFFSET 3.006224 -47.83518 -5
        CHANNELS 3 Zrotation Xrotation Yrotation
        End Site
        {
          OFFSET 0 -5 15
        }
      }
    }
  }
  JOINT pelvis_left_femur
  {
    OFFSET 10.78128 -3.44521 -0.5502486
    CHANNELS 3 Zrotation Xrotation Yrotation
    JOINT left_femur_tibia
    {
      OFFSET 0.8047443 -44.0398 -0.1307829
      CHANNELS 3 Zrotation Xrotation Yrotation
      JOINT left_tibia_foot
      {
        OFFSET -4.370144 -48.10324 -4.275266
        CHANNELS 3 Zrotation Xrotation Yrotation
        End Site
        {
          OFFSET 0 -5 15
        }
      }
    }
  }
  JOINT pelvis_spine1
  {
    OFFSET 0 6.468898 -3.129235
    CHANNELS 3 Zrotation Xrotation Yrotation
    JOINT spine1
    {
      OFFSET 0 23.15396 4.99043
      CHANNELS 3 Zrotation Xrotation Yrotation
      JOINT spine2
      {
        OFFSET 0 20.79997 -5.064912
        CHANNELS 3 Zrotation Xrotation Yrotation
        JOINT neck
        {
          OFFSET 0 14.38658 9.616178
          CHANNELS 3 Zrotation Xrotation Yrotation
          End Site
          {
            OFFSET 0 20 0
          }
        }
      }
      JOINT right_manubrium
      {
        OFFSET -5.722621 16.35077 3.967754
        CHANNELS 3 Zrotation Xrotation Yrotation
        JOINT right_clavicle
        {
          OFFSET -13.16364 1.694482 -4.693211
          CHANNELS 3 Zrotation Xrotation Yrotation
          JOINT right_humerus
          {
            OFFSET -28.5034 -0.3100689 -2.792744
            CHANNELS 3 Zrotation Xrotation Yrotation
            JOINT right_radius
            {
              OFFSET -25.15693 0.02248979 -1.271978
              CHANNELS 3 Zrotation Xrotation Yrotation
              End Site
              {
                OFFSET -15 0 0
              }
            }
          }
        }
      }
      JOINT left_manubrium
      {
        OFFSET 5.722621 16.35077 3.967754
        CHANNELS 3 Zrotation Xrotation Yrotation
        JOINT left_clavicle
        {
          OFFSET 13.16364 1.694482 -4.693211
          CHANNELS 3 Zrotation Xrotation Yrotation
          JOINT left_humerus
          {
            OFFSET 29.39168 -1.063119 -2.237045
            CHANNELS 3 Zrotation Xrotation Yrotation
            JOINT left_radius
            {
              OFFSET 24.59957 -0.9528479 0.9047498
              CHANNELS 3 Zrotation Xrotation Yrotation
              End Site
              {
                OFFSET 15 -0 -0
              }
            }
          }
        }
      }
    }
  }
}
MOTION
Frames: 9
Frame Time: 0.0416666666667
-965.4344 120.2929 -294.2881 7.375021 2.083492 108.5162 5.19234 13.94364 2.019848 -0 16.82587 -0 -11.45539 -13.42571 -0.8095293 3.986313 -18.47087 -2.642123 -0 9.937353 -0 3.025571 0.06333139 14.67736 0.6884323 -3.035882 8.551817 0.3574644 14.76595 -6.327207 -0.2331237 18.78481 2.787862 2.688001 -16.61414 1.983293 -0.1215992 -30.48247 12.53005 85.80953 21.55884 -9.272016 -0 0 31.23373 -19.24901 11.49587 11.44072 2.622728 -22.33397 -7.646222 -94.25203 7.269103 37.95811 0 0 -4.613804 9.212134 11.39182 0.2474362
-960.2862 120.2593 -297.3917 7.39384 2.015334 107.99 5.19234 13.94364 2.019848 -0 16.82587 -0 -11.45539 -13.42571 -0.8095293 3.986313 -18.47087 -2.642123 -0 9.937353 -0 3.025571 0.06333139 14.67736 0.6884323 -3.035882 8.551817 0.3574644 14.76595 -6.327207 -0.2331237 18.78481 2.787862 2.688001 -16.61414 1.983293 -0.1215992 -30.48247 12.53005 85.80953 21.55884 -9.272016 -0 0 31.23373 -19.24901 11.49587 11.44072 2.622728 -22.33397 -7.646222 -94.25203 7.269103 37.95811 0 0 -4.613804 9.212134 11.39182 0.2474362
-955.1094 120.2257 -300.4475 7.412031 1.947007 107.4638 5.19234 13.94364 2.019848 -0 16.82587 -0 -11.45539 -13.42571 -0.8095293 3.986313 -18.47087 -2.642123 -0 9.937353 -0 3.025571 0.06333139 14.67736 0.6884323 -3.035882 8.551817 0.3574644 14.76595 -6.327207 -0.2331237 18.78481 2.787862 2.688001 -16.61414 1.983293 -0.1215992 -30.48247 12.53005 85.80953 21.55884 -9.272016 -0 0 31.23373 -19.24901 11.49587 11.44072 2.622728 -22.33397 -7.646222 -94.25203 7.269103 37.95811 0 0 -4.613804 9.212134 11.39182 0.2474362
-949.9046 120.192 -303.4553 7.429593 1.878516 106.9377 5.19234 13.94364 2.019848 -0 16.82587 -0 -11.45539 -13.42571 -0.8095293 3.986313 -18.47087 -2.642123 -0 9.937353 -0 3.025571 0.06333139 14.67736 0.6884323 -3.035882 8.551817 0.3574644 14.76595 -6.327207 -0.2331237 18.78481 2.787862 2.688001 -16.61414 1.983293 -0.1215992 -30.48247 12.53005 85.80953 21.55884 -9.272016 -0 0 31.23373 -19.24901 11.49587 11.44072 2.622728 -22.33397 -7.646222 -94.25203 7.269103 37.95811 0 0 -4.613804 9.212134 11.39182 0.2474362
-944.6722 120.1584 -306.4148 7.446524 1.809867 106.4116 5.19234 13.94364 2.019848 -0 16.82587 -0 -11.45539 -13.42571 -0.8095293 3.986313 -18.47087 -2.642123 -0 9.937353 -0 3.025571 0.06333139 14.67736 0.6884323 -3.035882 8.551817 0.3574644 14.76595 -6.327207 -0.2331237 18.78481 2.787862 2.688001 -16.61414 1.983293 -0.1215992 -30.48247 12.53005 85.80953 21.55884 -9.272016 -0 0 31.23373 -19.24901 11.49587 11.44072 2.622728 -22.33397 -7.646222 -94.25203 7.269103 37.95811 0 0 -4.613804 9.212134 11.39182 0.2474362
-939.4127 120.1248 -309.3257 7.462823 1.741065 105.8855 5.19234 13.94364 2.019848 -0 16.82587 -0 -11.45539 -13.42571 -0.8095293 3.986313 -18.47087 -2.642123 -0 9.937353 -0 3.025571 0.06333139 14.67736 0.6884323 -3.035882 8.551817 0.3574644 14.76595 -6.327207 -0.2331237 18.78481 2.787862 2.688001 -16.61414 1.983293 -0.1215992 -30.48247 12.53005 85.80953 21.55884 -9.272016 -0 0 31.23373 -19.24901 11.49587 11.44072 2.622728 -22.33397 -7.646222 -94.25203 7.269103 37.95811 0 0 -4.613804 9.212134 11.39182 0.2474362
-934.1264 120.0911 -312.1879 7.478489 1.672116 105.3595 5.19234 13.94364 2.019848 -0 16.82587 -0 -11.45539 -13.42571 -0.8095293 3.986313 -18.47087 -2.642123 -0 9.937353 -0 3.025571 0.06333139 14.67736 0.6884323 -3.035882 8.551817 0.3574644 14.76595 -6.327207 -0.2331237 18.78481 2.787862 2.688001 -16.61414 1.983293 -0.1215992 -30.48247 12.53005 85.80953 21.55884 -9.272016 -0 0 31.23373 -19.24901 11.49587 11.44072 2.622728 -22.33397 -7.646222 -94.25203 7.269103 37.95811 0 0 -4.613804 9.212134 11.39182 0.2474362
-928.8138 120.0575 -315.0009 7.49352 1.603027 104.8335 5.19234 13.94364 2.019848 -0 16.82587 -0 -11.45539 -13.42571 -0.8095293 3.986313 -18.47087 -2.642123 -0 9.937353 -0 3.025571 0.06333139 14.67736 0.6884323 -3.035882 8.551817 0.3574644 14.76595 -6.327207 -0.2331237 18.78481 2.787862 2.688001 -16.61414 1.983293 -0.1215992 -30.48247 12.53005 85.80953 21.55884 -9.272016 -0 0 31.23373 -19.24901 11.49587 11.44072 2.622728 -22.33397 -7.646222 -94.25203 7.269103 37.95811 0 0 -4.613804 9.212134 11.39182 0.2474362
-923.4754 120.0239 -317.7647 7.507916 1.533803 104.3075 5.19234 13.94364 2.019848 -0 16.82587 -0 -11.45539 -13.42571 -0.8095293 3.986313 -18.47087 -2.642123 -0 9.937353 -0 3.025571 0.06333139 14.67736 0.6884323 -3.035882 8.551817 0.3574644 14.76595 -6.327207 -0.2331237 18.78481 2.787862 2.688001 -16.61414 1.983293 -0.1215992 -30.48247 12.53005 85.80953 21.55884 -9.272016 -0 0 31.23373 -19.24901 11.49587 11.44072 2.622728 -22.33397 -7.646222 -94.25203 7.269103 37.95811 0 0 -4.613804 9.212134 11.39182 0.2474362
